<svg width="51" height="81" viewBox="0 0 51 81" fill="none" xmlns="http://www.w3.org/2000/svg">
<path d="M29.3335 16.1997H32.0001V18.8997H29.3335V16.1997Z" fill="black"/>
<path d="M29.3335 21.5996H32.0001V24.3002H29.3335V21.5996Z" fill="black"/>
<path d="M29.3335 27.0002H32.0001V29.7002H29.3335V27.0002Z" fill="black"/>
<path d="M29.3335 32.4001H32.0001V35.1001H29.3335V32.4001Z" fill="black"/>
<path d="M30.6665 53.9998C29.9304 53.9998 29.3335 54.6041 29.3335 55.35V56.6997C29.3335 57.4456 29.9304 58.05 30.6665 58.05C31.4032 58.05 32.0001 57.4456 32.0001 56.6997V55.35C32.0001 54.6041 31.4032 53.9998 30.6665 53.9998Z" fill="black"/>
<path d="M36.0004 55.35C35.2637 55.35 34.6667 55.9544 34.6667 56.6996V58.0499C34.6667 58.7952 35.2637 59.3996 36.0004 59.3996C36.7365 59.3996 37.3334 58.7952 37.3334 58.0499V56.6996C37.3334 55.9544 36.7365 55.35 36.0004 55.35Z" fill="black"/>
<path d="M25.3333 55.35C24.5972 55.35 24.0002 55.9544 24.0002 56.6996V58.0499C24.0002 58.7952 24.5972 59.3996 25.3333 59.3996C26.0699 59.3996 26.6669 58.7952 26.6669 58.0499V56.6996C26.6669 55.9544 26.0699 55.35 25.3333 55.35Z" fill="black"/>
<path d="M9.3335 48.5999C4.18152 48.6067 0.00671778 52.8337 3.90557e-06 58.05V61.6628C-0.0036582 65.7309 2.56836 69.343 6.38123 70.6253C6.43128 70.6433 6.48194 70.6575 6.53321 70.6686L15.9998 72.6505V75.6001C15.9998 78.5825 18.3881 81 21.3336 81H41.3336C44.2786 81 46.6669 78.5825 46.6669 75.6001V45.8999H47.9999C49.4727 45.8999 50.6665 44.6911 50.6665 43.2V40.5C50.6665 39.0088 49.4727 37.8 47.9999 37.8H42.6666V13.4998H45.3333C46.07 13.4998 46.6669 12.8954 46.6669 12.1501C46.6669 11.4042 46.07 10.7998 45.3333 10.7998H38.667V8.09988H40C40.7367 8.09988 41.3336 7.49549 41.3336 6.75021V1.35029C41.3336 0.604385 40.7367 0 40 0H21.3336C20.5969 0 20 0.604385 20 1.35029V6.75021C20 7.49549 20.5969 8.09988 21.3336 8.09988H22.6666V10.7998H16.0004C15.2637 10.7998 14.6668 11.4042 14.6668 12.1501C14.6668 12.8954 15.2637 13.4998 16.0004 13.4998H18.667V37.8H13.3337C11.861 37.8 10.6665 39.0088 10.6665 40.5V43.2C10.6665 44.6911 11.861 45.8999 13.3337 45.8999H16.0004V48.5999H9.3335ZM16.0004 64.422L10.3918 63.0019C8.69934 62.5755 7.66785 60.8408 8.08899 59.1266C8.43933 57.699 9.70642 56.6979 11.1585 56.6998H15.9998V64.422H16.0004ZM16.0004 53.9998H11.1591C7.94129 54.0023 5.33509 56.6448 5.33753 59.9021C5.33875 62.6058 7.15638 64.9622 9.74671 65.6197L16.0004 67.203V69.8924L7.15332 68.0397C4.46656 67.1022 2.66419 64.5401 2.66663 61.6628V58.05C2.6709 54.3236 5.65308 51.3042 9.3335 51.2998H15.9998V53.9998H16.0004ZM44.0002 75.6001C44.0002 77.0913 42.8064 78.3 41.3336 78.3H21.3336C19.8608 78.3 18.667 77.0913 18.667 75.6001V64.8002H44.0002V75.6001ZM44.0002 62.1003H18.667V45.8999H20.5096L22.807 50.5533C23.0328 51.0112 23.4949 51.3005 24.0002 51.2998H38.667C39.1748 51.3029 39.6399 51.0131 39.8669 50.5533L42.1576 45.8999H44.0002V62.1003ZM23.4906 45.8999H39.176L37.843 48.5999H24.8242L23.4906 45.8999ZM22.6666 2.69996H38.667V5.39992H22.6666V2.69996ZM36.0004 8.09988V10.7998H25.3333V8.09988H36.0004ZM21.3336 13.4998H40V37.8H21.3336V13.4998ZM13.3337 43.2V40.5H47.9999V43.2H13.3337Z" fill="black"/>
</svg>
