<svg width="40" height="81" viewBox="0 0 40 81" fill="none" xmlns="http://www.w3.org/2000/svg">
<path d="M39.2954 67.3313L31.7929 45.5625H32.4833C33.3463 45.5625 34.0458 44.8541 34.0458 43.9805V35.1211C34.0458 34.2473 33.3463 33.5391 32.4833 33.5391H32.1294L39.381 18.8659C39.673 18.259 39.5527 17.5314 39.0813 17.0541L22.6955 0.463377C22.4024 0.166746 22.005 0 21.5907 0C21.1763 0 20.7788 0.166746 20.4858 0.463377L16.4754 4.52398L12.4647 0.463377C11.8546 -0.154248 10.8652 -0.154248 10.2549 0.463377L0.457694 10.383C-0.0415251 10.8885 -0.144025 11.6702 0.20785 12.29L4.3666 19.6172H3.44691C2.90457 19.6172 2.40097 19.902 2.11644 20.3696C1.83207 20.8371 1.80738 21.4205 2.05144 21.911L7.83723 33.5391H7.48332C6.62035 33.5391 5.92082 34.2473 5.92082 35.1211V43.9805C5.92082 44.8541 6.62035 45.5625 7.48332 45.5625H8.17379L0.671288 67.3313C-0.426524 70.5167 0.0501946 73.921 1.97957 76.6717C3.90894 79.4224 6.9266 81 10.2588 81H12.8675C13.7305 81 14.43 80.2916 14.43 79.418C14.43 78.5444 13.7305 77.8359 12.8675 77.8359H10.2588C7.95207 77.8359 5.86316 76.7439 4.52754 74.8396C3.19191 72.9354 2.86176 70.5787 3.62191 68.3736L5.37691 63.2812H34.5897L36.3449 68.3738C37.1049 70.5788 36.7749 72.9356 35.4393 74.8397C34.1036 76.7439 32.0147 77.8361 29.708 77.8361H26.9302C26.0672 77.8361 25.3677 78.5445 25.3677 79.4181C25.3677 80.2917 26.0672 81.0002 26.9302 81.0002H29.708C33.0402 81.0002 36.0577 79.4226 37.9871 76.6719C39.9165 73.921 40.3932 70.5165 39.2954 67.3313ZM9.04582 42.3984V36.7031H30.9208V42.3984H9.04582ZM11.3599 3.8195L14.2655 6.76128L5.63441 15.5004L3.51363 11.7637L11.3599 3.8195ZM7.24723 18.3421L21.5907 3.81934L36.0838 18.4938L35.5432 19.6172H7.97082L7.24723 18.3421ZM5.98363 22.7812H33.983L28.6302 33.5391H11.3364L5.98363 22.7812ZM6.46738 60.1172L11.4836 45.5625H28.483L33.4993 60.1172H6.46738Z" fill="black"/>
<path d="M19.8988 77.8359C19.4878 77.8359 19.0847 78.0051 18.7941 78.2995C18.5035 78.5937 18.3363 79.0019 18.3363 79.418C18.3363 79.834 18.5035 80.2422 18.7941 80.5363C19.0847 80.8306 19.4878 81 19.8988 81C20.3097 81 20.7128 80.8307 21.0035 80.5363C21.2941 80.2422 21.4613 79.834 21.4613 79.418C21.4613 79.0019 21.2941 78.5937 21.0035 78.2995C20.7128 78.0051 20.3097 77.8359 19.8988 77.8359Z" fill="black"/>
</svg>
