<svg width="73" height="76" viewBox="0 0 73 76" fill="none" xmlns="http://www.w3.org/2000/svg">
<path d="M71.25 68.4H66.25V20.2667H71.25C71.9403 20.2667 72.5 19.6995 72.5 19C72.4883 8.51153 64.1005 0.011875 53.75 0H21.25C10.8995 0.011875 2.51172 8.51153 2.5 19C2.5 19.6995 3.05969 20.2667 3.75 20.2667H8.75V25.3333H1.25C0.559687 25.3333 0 25.9005 0 26.6V31.6667C0 32.3662 0.559687 32.9333 1.25 32.9333H8.75V68.4H3.75C3.05969 68.4 2.5 68.9671 2.5 69.6667C2.50406 73.1627 5.3 75.9959 8.75 76H66.25C69.7 75.9959 72.4959 73.1627 72.5 69.6667C72.5 68.9671 71.9403 68.4 71.25 68.4ZM5.0475 17.7333C5.71047 9.16037 12.7639 2.54331 21.25 2.53333H53.75C62.2361 2.54331 69.2895 9.16037 69.9525 17.7333H5.0475ZM52.43 60.8H56.25C59.7017 60.8 62.5 57.9644 62.5 54.4667C62.5 50.9689 59.7017 48.1333 56.25 48.1333H52.5V46.8667C52.5 46.1671 51.9403 45.6 51.25 45.6H23.75C23.0597 45.6 22.5 46.1671 22.5 46.8667V59.5333C22.5008 62.9802 24.0436 66.2408 26.695 68.4H11.25V32.9333H18.75C19.4403 32.9333 20 32.3662 20 31.6667V30.4H27.6C28.2208 34.7584 31.9042 37.9948 36.25 38H38.75C43.5801 37.9945 47.4945 34.0279 47.5 29.1333V20.2667H63.75V68.4H48.305C50.615 66.5168 52.0975 63.7854 52.43 60.8ZM41.25 68.4H33.75C28.9198 68.3945 25.0055 64.4279 25 59.5333V48.1333H50V59.5333C49.9945 64.4279 46.0801 68.3945 41.25 68.4ZM52.5 58.2667V50.6667H56.25C58.3211 50.6667 60 52.368 60 54.4667C60 56.5654 58.3211 58.2667 56.25 58.2667H52.5ZM18.75 25.3333H11.25V20.2667H27.5V27.8667H20V26.6C20 25.9005 19.4403 25.3333 18.75 25.3333ZM30 29.1333V20.2667H45V29.1333C44.9959 32.6293 42.2 35.4626 38.75 35.4667H36.25C32.8 35.4626 30.0041 32.6293 30 29.1333ZM2.5 30.4V27.8667H17.5V30.4H2.5ZM66.25 73.4667H8.75C7.16125 73.4648 5.74547 72.4505 5.21375 70.9333H69.7862C69.2545 72.4505 67.8387 73.4648 66.25 73.4667Z" fill="black"/>
<path d="M30 59.5333H27.5C27.5041 63.0293 30.3 65.8625 33.75 65.8667V63.3333C31.6789 63.3333 30 61.632 30 59.5333Z" fill="black"/>
<path d="M40 6.33331H35C34.3097 6.33331 33.75 6.90046 33.75 7.59998V12.6666C33.75 13.3662 34.3097 13.9333 35 13.9333H40C40.6903 13.9333 41.25 13.3662 41.25 12.6666V7.59998C41.25 6.90046 40.6903 6.33331 40 6.33331ZM38.75 11.4H36.25V8.86665H38.75V11.4Z" fill="black"/>
<path d="M25 6.33331H20C19.3097 6.33331 18.75 6.90046 18.75 7.59998V12.6666C18.75 13.3662 19.3097 13.9333 20 13.9333H25C25.6903 13.9333 26.25 13.3662 26.25 12.6666V7.59998C26.25 6.90046 25.6903 6.33331 25 6.33331ZM23.75 11.4H21.25V8.86665H23.75V11.4Z" fill="black"/>
<path d="M55 6.33331H50C49.3097 6.33331 48.75 6.90046 48.75 7.59998V12.6666C48.75 13.3662 49.3097 13.9333 50 13.9333H55C55.6903 13.9333 56.25 13.3662 56.25 12.6666V7.59998C56.25 6.90046 55.6903 6.33331 55 6.33331ZM53.75 11.4H51.25V8.86665H53.75V11.4Z" fill="black"/>
</svg>
