<svg id="Capa_1" enable-background="new 0 0 511.692 511.692" height="512" viewBox="0 0 511.692 511.692" width="512" xmlns="http://www.w3.org/2000/svg"><g><g><path d="m240.846 217.974v241.774c0 8.258 6.675 14.954 14.923 14.996v-271.766c-8.248.042-14.923 6.738-14.923 14.996z" fill="#00e092"/><path d="m255.846 202.974c-.026 0-.051.004-.077.004v271.767c.026 0 .051.004.077.004 8.284 0 15-6.716 15-15v-241.775c0-8.284-6.716-15-15-15z" fill="#00b6a5"/></g><g><path d="m65.36 291.206c-8.284 0-15 6.716-15 15 0 113.28 92.139 205.443 205.409 205.485v-92.263c-30.594-75.131-104.416-128.222-190.409-128.222z" fill="#00b7a5"/><path d="m446.332 291.206c-86.064 0-159.938 53.178-190.486 128.407-.025-.062-.052-.123-.077-.184v92.263c.026 0 .051.001.077.001 113.306 0 205.486-92.181 205.486-205.486 0-8.285-6.715-15.001-15-15.001z" fill="#00848a"/></g><g><path d="m328.784 110.346c0-19.042-7.364-45.235-18.763-66.73-14.856-28.018-34.06-43.491-54.098-43.61v183.425c40.196-.126 72.861-32.86 72.861-73.085z" fill="#f67e00"/><path d="m255.692 0c-20.121 0-39.416 15.489-54.329 43.615-11.397 21.495-18.762 47.688-18.762 66.73 0 40.303 32.788 73.091 73.091 73.091.078 0 .154-.006.231-.006v-183.424c-.077-.001-.154-.006-.231-.006z" fill="#ff8600"/></g><path d="m401.678 84.439c-10.24-17.32-33.393-26.051-65.195-24.565-24.303 1.13-50.598 8.122-66.989 17.813v.001c-4.674 2.764-8.913 5.983-12.724 9.548-24.478 22.894-30.738 60.552-12.989 90.569 3.628 6.136 8.026 11.54 12.989 16.177 13.678 12.782 31.694 19.696 50.049 19.696 12.638 0 25.437-3.275 37.08-10.16 16.391-9.691 35.189-29.363 47.891-50.114 16.618-27.153 20.13-51.645 9.888-68.965z" fill="#ff8600"/><g><path d="m382.371 218.284c-7.141-23.259-20.454-46.988-33.919-60.453-25.118-25.118-64.117-28.084-92.53-8.921v121.513c13.562 10.056 31.725 19.202 49.615 24.695 11.912 3.656 22.925 5.47 32.776 5.47 15.318 0 27.821-4.387 36.48-13.046 14.23-14.23 16.92-38.825 7.578-69.258z" fill="#ff9e00"/><path d="m245.085 157.831c-28.497 28.498-28.497 74.869 0 103.367 3.108 3.108 6.768 6.207 10.838 9.224v-121.512c-3.822 2.577-7.459 5.542-10.838 8.921z" fill="#54469c"/></g><g><path d="m162.932 157.829c-13.465 13.465-26.779 37.194-33.919 60.453-9.343 30.433-6.652 55.028 7.576 69.257 8.66 8.66 21.16 13.046 36.479 13.046 9.851 0 20.867-1.813 32.777-5.47 18.093-5.555 36.468-14.845 50.077-25.036v-120.849c-28.45-19.511-67.734-16.656-92.99 8.599z" fill="#ffb54c"/><path d="m266.298 157.829c-3.242-3.242-6.724-6.095-10.375-8.599v120.85c3.886-2.91 7.385-5.893 10.375-8.883 28.499-28.499 28.499-74.87 0-103.368z" fill="#ff8600"/></g><path d="m256.769 87.858c-5.052-5.025-10.924-9.389-17.555-12.869-16.708-8.768-42.992-14.394-67.141-14.394-.222 0-.445 0-.667.001-31.834.138-54.515 10.025-63.864 27.843s-4.6 42.1 13.376 68.374c13.738 20.08 33.511 38.772 50.372 47.62 10.811 5.673 22.403 8.36 33.84 8.36 19.149 0 37.844-7.547 51.639-21.237 5.165-5.126 9.649-11.107 13.205-17.885 15.247-29.055 8.929-63.797-13.205-85.813z" fill="#ffc373"/><g><path d="m255.923 82.059c-43.355 0-78.627 35.271-78.627 78.627 0 43.354 35.271 78.625 78.627 78.625.035 0 .068-.003.103-.003v-157.246c-.035 0-.068-.003-.103-.003z" fill="#ffdd46"/><path d="m334.55 160.686c0-43.321-35.216-78.568-78.524-78.624v157.247c43.308-.057 78.524-35.304 78.524-78.623z" fill="#fecd2f"/></g></g></svg>