<svg width="65" height="76" viewBox="0 0 65 76" fill="none" xmlns="http://www.w3.org/2000/svg">
<path d="M54.4216 24.0469H52.6725C51.7591 23.2354 50.5809 22.7854 49.3591 22.7812H46.8279V17.7188C47.1635 17.7188 47.4854 17.5854 47.7228 17.3481C47.9601 17.1107 48.0935 16.7888 48.0935 16.4531V11.3906C48.0935 11.055 47.9601 10.733 47.7228 10.4957C47.4854 10.2583 47.1635 10.125 46.8279 10.125H30.3747V7.59375H31.6404C32.6473 7.59375 33.6131 7.19372 34.3251 6.48167C35.0372 5.76962 35.4372 4.80387 35.4372 3.79688C35.4372 2.78988 35.0372 1.82413 34.3251 1.11208C33.6131 0.400027 32.6473 0 31.6404 0H21.5154C20.5084 0 19.5426 0.400027 18.8306 1.11208C18.1185 1.82413 17.7185 2.78988 17.7185 3.79688C17.7185 4.80387 18.1185 5.76962 18.8306 6.48167C19.5426 7.19372 20.5084 7.59375 21.5154 7.59375H22.781V10.125H6.32785C5.99219 10.125 5.67027 10.2583 5.43292 10.4957C5.19557 10.733 5.06223 11.055 5.06223 11.3906V15.1875H1.26536C1.01508 15.1876 0.770435 15.2618 0.562354 15.4009C0.354272 15.54 0.192095 15.7376 0.0963248 15.9688C0.000554878 16.2001 -0.0245074 16.4545 0.0243046 16.7C0.0731167 16.9454 0.193612 17.1709 0.370559 17.3479L6.32785 23.3052V68.3438C5.99219 68.3438 5.67027 68.4771 5.43292 68.7144C5.19557 68.9518 5.06223 69.2737 5.06223 69.6094V74.6719C5.06223 75.0075 5.19557 75.3295 5.43292 75.5668C5.67027 75.8042 5.99219 75.9375 6.32785 75.9375H46.8279C47.1635 75.9375 47.4854 75.8042 47.7228 75.5668C47.9601 75.3295 48.0935 75.0075 48.0935 74.6719V69.6094C48.0935 69.2737 47.9601 68.9518 47.7228 68.7144C47.4854 68.4771 47.1635 68.3438 46.8279 68.3438V63.2812H49.3591C50.5809 63.2771 51.7591 62.8271 52.6725 62.0156H54.4216C56.7211 62.0143 58.9303 61.12 60.5831 59.5212C62.2359 57.9225 63.2032 55.7443 63.281 53.4461C63.678 53.0909 63.9959 52.6562 64.214 52.1702C64.432 51.6842 64.5453 51.1577 64.5466 50.625V35.4375C64.5453 34.9048 64.432 34.3783 64.214 33.8923C63.9959 33.4063 63.678 32.9716 63.281 32.6164C63.2032 30.3182 62.2359 28.14 60.5831 26.5413C58.9303 24.9425 56.7211 24.0482 54.4216 24.0469ZM55.6606 53.417C55.6008 53.7012 55.445 53.9562 55.2194 54.1392C54.9938 54.3222 54.7121 54.422 54.4216 54.4219H52.6725C51.7591 53.6104 50.5809 53.1604 49.3591 53.1562H46.8279V32.9062H49.3591C50.5809 32.9021 51.7591 32.4521 52.6725 31.6406H54.4216C54.7121 31.6405 54.9938 31.7403 55.2194 31.9233C55.445 32.1063 55.6008 32.3613 55.6606 32.6455C55.2721 32.9997 54.9613 33.4308 54.748 33.9114C54.5347 34.392 54.4235 34.9117 54.4216 35.4375V50.625C54.4235 51.1508 54.5347 51.6705 54.748 52.1511C54.9613 52.6317 55.2721 53.0628 55.6606 53.417ZM25.3122 17.7188V21.5156H8.8591V17.7188H25.3122ZM44.2966 31.6406H8.8591V24.0469H44.2966V31.6406ZM8.8591 34.1719H25.3122V51.8906H8.8591V34.1719ZM27.8435 34.1719H44.2966V51.8906H27.8435V34.1719ZM49.3591 25.3125C50.0304 25.3125 50.6743 25.5792 51.149 26.0539C51.6237 26.5286 51.8904 27.1724 51.8904 27.8438C51.8904 28.5151 51.6237 29.1589 51.149 29.6336C50.6743 30.1083 50.0304 30.375 49.3591 30.375H46.8279V25.3125H49.3591ZM44.2966 21.5156H27.8435V17.7188H44.2966V21.5156ZM20.2497 3.79688C20.2497 3.46121 20.3831 3.13929 20.6204 2.90194C20.8578 2.66459 21.1797 2.53125 21.5154 2.53125H31.6404C31.976 2.53125 32.2979 2.66459 32.5353 2.90194C32.7726 3.13929 32.906 3.46121 32.906 3.79688C32.906 4.13254 32.7726 4.45446 32.5353 4.69181C32.2979 4.92916 31.976 5.0625 31.6404 5.0625H21.5154C21.1797 5.0625 20.8578 4.92916 20.6204 4.69181C20.3831 4.45446 20.2497 4.13254 20.2497 3.79688ZM25.3122 7.59375H27.8435V10.125H25.3122V7.59375ZM7.59348 12.6562H45.5622V15.1875H7.59348V12.6562ZM6.32785 17.7188V19.726L4.32057 17.7188H6.32785ZM45.5622 73.4062H7.59348V70.875H45.5622V73.4062ZM8.8591 68.3438V54.4219H44.2966V68.3438H8.8591ZM49.3591 60.75H46.8279V55.6875H49.3591C50.0304 55.6875 50.6743 55.9542 51.149 56.4289C51.6237 56.9036 51.8904 57.5474 51.8904 58.2188C51.8904 58.8901 51.6237 59.5339 51.149 60.0086C50.6743 60.4833 50.0304 60.75 49.3591 60.75ZM62.0154 50.625C62.0151 50.8458 61.9564 51.0625 61.8453 51.2532C61.7341 51.444 61.5745 51.6019 61.3825 51.7109C61.1903 51.8219 61.0307 51.9814 60.9196 52.1736C60.8085 52.3657 60.75 52.5837 60.7497 52.8057V53.1562C60.7477 54.834 60.0804 56.4424 58.894 57.6287C57.7077 58.815 56.0993 59.4824 54.4216 59.4844H54.2419C54.4815 58.6576 54.4815 57.7799 54.2419 56.9531H54.4216C55.4286 56.9531 56.3943 56.5531 57.1064 55.841C57.8184 55.129 58.2185 54.1632 58.2185 53.1562V52.8057C58.2182 52.5837 58.1597 52.3657 58.0486 52.1736C57.9375 51.9814 57.7779 51.8219 57.5857 51.7109C57.3937 51.6019 57.2341 51.444 57.1229 51.2532C57.0118 51.0625 56.9531 50.8458 56.9529 50.625V35.4375C56.9531 35.2167 57.0118 35 57.1229 34.8093C57.2341 34.6185 57.3937 34.4606 57.5857 34.3516C57.7779 34.2406 57.9375 34.0811 58.0486 33.8889C58.1597 33.6968 58.2182 33.4788 58.2185 33.2568V32.9062C58.2185 31.8993 57.8184 30.9335 57.1064 30.2215C56.3943 29.5094 55.4286 29.1094 54.4216 29.1094H54.2419C54.4815 28.2826 54.4815 27.4049 54.2419 26.5781H54.4216C56.0993 26.5801 57.7077 27.2475 58.894 28.4338C60.0804 29.6201 60.7477 31.2285 60.7497 32.9062V33.2568C60.75 33.4788 60.8085 33.6968 60.9196 33.8889C61.0307 34.0811 61.1903 34.2406 61.3825 34.3516C61.5745 34.4606 61.7341 34.6185 61.8453 34.8093C61.9564 35 62.0151 35.2167 62.0154 35.4375V50.625Z" fill="black"/>
</svg>
