<svg id="Capa_1" enable-background="new 0 0 512 512" height="512" viewBox="0 0 512 512" width="512" xmlns="http://www.w3.org/2000/svg"><g><g><g><path d="m244.233 90.932h-65.827c-33.924 0-61.524-27.599-61.524-61.524v-29.408h65.827c33.924 0 61.523 27.599 61.523 61.523v29.409z" fill="#19a995"/></g></g><g><g><path d="m244.233 90.932h-65.827c-33.924 0-61.524-27.599-61.524-61.524v-29.408z" fill="#0d7579"/></g></g><g><path d="m241.014 67.12v138.548h14.986l5.496-85.546-5.496-95.213c-9.361 11.539-14.986 26.228-14.986 42.211z" fill="#e6c897"/><path d="m308.135 0c-21.027 0-39.819 9.727-52.135 24.909v180.759h14.986v-138.548c0-20.484 16.666-37.149 37.15-37.149h73.216v-29.971z" fill="#c29578"/></g><g><g><path d="m175.963 431.963c0 44.132 35.905 80.037 80.037 80.037l21.93-69.82-21.93-90.254c-44.132 0-80.037 35.904-80.037 80.037z" fill="#fc445f"/></g><path d="m256 351.926v160.074c44.133 0 80.037-35.905 80.037-80.037 0-44.133-35.904-80.037-80.037-80.037z" fill="#e1105a"/><g><circle cx="183.661" cy="193.924" fill="#fd697f" r="73.126"/><circle cx="328.339" cy="193.924" fill="#fc445f" r="73.126"/></g><g><circle cx="183.661" cy="358.965" fill="#fd697f" r="73.126"/><circle cx="328.339" cy="358.965" fill="#fc445f" r="73.126"/></g><circle cx="361.026" cy="279.068" fill="#a1073d" r="80.037"/><circle cx="150.974" cy="279.068" fill="#e1105a" r="80.037"/><g><path d="m175.963 279.068c0 44.132 35.905 80.037 80.037 80.037l21.93-69.82-21.93-90.254c-44.132 0-80.037 35.905-80.037 80.037z" fill="#fc445f"/></g><path d="m256 199.031v160.074c44.133 0 80.037-35.905 80.037-80.037s-35.904-80.037-80.037-80.037z" fill="#e1105a"/></g></g></svg>