<svg width="70" height="81" viewBox="0 0 70 81" fill="none" xmlns="http://www.w3.org/2000/svg">
<path d="M68.0274 17.7181H60.1616L42.8835 10.3837L43.6569 1.72267C43.6965 1.28034 43.5483 0.841799 43.2485 0.51416C42.9488 0.18668 42.5252 0 42.0812 0H32.5891C32.145 0 31.7215 0.18668 31.4217 0.51416C31.1219 0.841799 30.9738 1.28034 31.0132 1.72267L31.7881 10.4007L15.2092 17.7181H11.0742C4.9679 17.7181 0 22.686 0 28.7923V39.8661C0 42.4831 2.1291 44.6122 4.74609 44.6122C7.36309 44.6122 9.49219 42.4831 9.49219 39.8661V28.7923C9.49219 27.9349 10.2168 27.2103 11.0742 27.2103H15.3323L18.7309 46.4696C19.0358 48.1977 20.2978 49.3589 21.871 49.3589V55.6875C20.344 55.6875 19.1472 56.7636 18.7474 58.4958L14.0011 79.0622C13.8928 79.5319 14.0045 80.0255 14.3046 80.4028C14.6047 80.7801 15.0605 80.9998 15.5427 80.9998H59.8395C60.3216 80.9998 60.7775 80.7799 61.0776 80.4028C61.3778 80.0255 61.4896 79.5319 61.3811 79.0622L56.6348 58.4958C56.2354 56.7636 55.0384 55.6875 53.5114 55.6875V49.3591C55.0846 49.3591 56.3464 48.198 56.6513 46.47L58.9264 33.5777L69.0603 24.8392C69.4088 24.5387 69.6092 24.1011 69.6092 23.6411V19.3003C69.6094 18.4264 68.9009 17.7181 68.0274 17.7181ZM40.3516 3.16406L39.7584 9.80796H34.912L34.3185 3.16406H40.3516ZM33.7984 12.972H40.8835L52.064 17.7181H23.0451L33.7984 12.972ZM11.0742 24.0464C8.45722 24.0464 6.32813 26.1755 6.32813 28.7925V39.8662C6.32813 40.7386 5.61843 41.4483 4.74609 41.4483C3.87376 41.4483 3.16406 40.7386 3.16406 39.8662V28.7925C3.16406 24.4308 6.71256 20.8823 11.0742 20.8823H14.2155L14.774 24.0464H11.0742ZM21.8469 45.92L17.4284 20.8822H27.3576L27.7575 26.5485C27.8164 27.3823 28.5109 28.0192 29.334 28.0192C29.3714 28.0192 29.4092 28.0179 29.447 28.0152C30.3185 27.9537 30.9752 27.1973 30.9137 26.3258L30.5294 20.8822H44.853L43.0661 46.195H32.3163L31.9162 40.5286C31.8547 39.6571 31.0989 39.0002 30.2268 39.0619C29.3552 39.1235 28.6985 39.8798 28.7601 40.7514L29.1443 46.195H21.9433C21.9118 46.1442 21.87 46.0504 21.8469 45.92ZM21.8306 59.2072C21.8716 59.0292 21.9271 58.9134 21.9656 58.8514H29.1417L27.3892 77.8358H17.5316L21.8306 59.2072ZM43.0634 58.8516L44.8158 77.8359H30.5666L32.319 58.8516H43.0634ZM53.5518 59.2072L57.8509 77.8359H47.9933L46.2409 58.8516H53.417C53.4554 58.9134 53.5108 59.0292 53.5518 59.2072ZM50.3474 55.6875H25.0352V49.3591H50.3474V55.6875ZM53.5353 45.92C53.5122 46.0504 53.4706 46.1442 53.4391 46.1948H46.238L48.0249 20.8822H57.9541L55.9074 32.4799C55.9074 32.4801 55.9074 32.4802 55.9072 32.4804L53.5353 45.92ZM66.4453 22.9162L59.7962 28.6498L61.167 20.8822H66.4453V22.9162Z" fill="black"/>
<path d="M29.837 35.1206C30.7107 35.1206 31.419 34.4123 31.419 33.5386C31.419 32.6648 30.7107 31.9565 29.837 31.9565H29.8359C28.9621 31.9565 28.2545 32.6648 28.2545 33.5386C28.2545 34.4123 28.9632 35.1206 29.837 35.1206Z" fill="black"/>
</svg>
