<svg width="61" height="76" viewBox="0 0 61 76" fill="none" xmlns="http://www.w3.org/2000/svg">
<path d="M32.9333 68.4H35.4667V70.9334H32.9333V68.4Z" fill="black"/>
<path d="M26.6 53.2C27.6879 53.169 28.7146 52.6878 29.4351 51.8714C30.1551 51.055 30.5045 49.9764 30.4 48.8928C30.4 45.5294 27.785 41.3064 27.6737 41.1283C27.4269 40.7801 27.0267 40.5735 26.6 40.5735C26.1732 40.5735 25.7731 40.7801 25.5263 41.1283C25.415 41.3064 22.8 45.5294 22.8 48.8928C22.6955 49.9764 23.0449 51.055 23.7648 51.8714C24.4854 52.6878 25.5121 53.169 26.6 53.2ZM26.6012 44.4842C27.31 45.856 27.7399 47.354 27.8666 48.8928C27.8666 50.371 27.0836 50.6406 26.6 50.6654C26.1163 50.6406 25.3333 50.371 25.3333 48.8928C25.4613 47.354 25.8918 45.856 26.6012 44.4842Z" fill="black"/>
<path d="M0 69.3154C0.00371094 73.0053 2.99473 75.9963 6.68464 76H46.5154C48.6795 76 50.7093 74.9529 51.9636 73.189C53.2173 71.425 53.5402 69.1638 52.8289 67.1197L43.5819 40.5333H45.6V32.9333H53.2V45.6H60.8V25.3333H34.2L47.5 7.6H60.8V0H2.53333V7.6H5.7L19 25.3333H7.6V40.5333H9.61813L0.371094 67.1197C0.124935 67.8254 0 68.5676 0 69.3154ZM45.6 27.8667H58.2667V43.0667H55.7333V30.4H45.6V27.8667ZM50.6667 2.53333H58.2667V5.06667H50.6667V2.53333ZM5.06667 5.06667V2.53333H48.1333V5.06667H5.06667ZM8.86667 7.6H44.3333L31.0333 25.3333H22.1667L8.86667 7.6ZM10.1333 27.8667H43.0667V38H10.1333V27.8667ZM12.3005 40.5333H40.8995L45.9798 55.1371C45.9216 55.1557 45.8721 55.1773 45.8152 55.1965C45.6012 55.2682 45.3953 55.3424 45.1967 55.4185C45.1126 55.4507 45.0254 55.4816 44.9432 55.5144C44.6785 55.6195 44.4199 55.7265 44.1663 55.8335C43.9765 55.9133 43.7878 55.9919 43.5967 56.0692L39.3941 43.9177L37.0018 44.749L41.1908 56.7928C40.3447 56.9388 39.4881 57.008 38.6296 57C36.7216 57.0482 34.8284 56.6487 33.1028 55.8323C31.0661 54.886 28.8396 54.419 26.5938 54.4667C24.3493 54.419 22.1234 54.886 20.0873 55.8323C18.3636 56.6487 16.4722 57.0482 14.5654 57C12.6543 57.0476 10.7592 56.6481 9.02995 55.8335C8.7807 55.729 8.52773 55.6239 8.26797 55.52C8.1721 55.4816 8.07005 55.4457 7.97171 55.408C7.78864 55.3381 7.60062 55.2701 7.40518 55.2039C7.34147 55.1823 7.28519 55.1581 7.22025 55.1371L12.3005 40.5333ZM2.76341 67.951L6.38591 57.5368C6.436 57.5529 6.4861 57.5684 6.53496 57.5845C6.73844 57.6525 6.93698 57.723 7.13057 57.7972C7.19303 57.8214 7.25674 57.8442 7.31859 57.869C7.56289 57.9661 7.80472 58.0663 8.04902 58.1689C10.0888 59.114 12.3178 59.581 14.5654 59.5333C16.8099 59.581 19.0359 59.114 21.0719 58.1677C22.7957 57.3513 24.687 56.9518 26.5938 57C28.5019 56.9518 30.3951 57.3513 32.1206 58.1677C34.1573 59.114 36.3839 59.581 38.6296 59.5333C39.7714 59.5438 40.9106 59.4331 42.0288 59.2031L45.2277 68.4H38V70.9333H46.5154C46.9514 70.9364 47.3695 70.7564 47.667 70.4373C47.9923 70.0792 48.1531 69.6017 48.1111 69.1199L44.4255 58.4646C44.6723 58.3656 44.9135 58.2667 45.146 58.1689C45.3804 58.0706 45.6118 57.9754 45.8449 57.882C45.9328 57.8473 46.0224 57.8145 46.1109 57.7805C46.2828 57.715 46.4591 57.6525 46.6397 57.5925C46.6966 57.5733 46.756 57.5548 46.8141 57.5362L50.4366 67.951C50.8776 69.2207 50.6772 70.6247 49.8985 71.7201C49.1198 72.8154 47.8593 73.466 46.5154 73.4667H6.68464C5.34066 73.466 4.08018 72.8154 3.3015 71.7201C2.52282 70.6247 2.32243 69.2201 2.76341 67.951Z" fill="black"/>
</svg>
